<svg width="59" height="58" viewBox="0 0 59 58" fill="none" xmlns="http://www.w3.org/2000/svg">
<path d="M54.8499 19.6699L34.1699 6.13998C32.6485 5.09469 30.8459 4.53514 28.9999 4.53514C27.154 4.53514 25.3514 5.09469 23.83 6.13998L3.15001 19.6699C2.16834 20.4183 1.37315 21.3836 0.826681 22.4905C0.280209 23.5973 -0.00272546 24.8156 1.97878e-05 26.0499V49.9999C-8.13817e-07 51.0547 0.20857 52.099 0.61373 53.0729C1.01889 54.0468 1.61264 54.9309 2.36081 55.6745C3.10898 56.418 3.9968 57.0062 4.97318 57.4053C5.94956 57.8044 6.99523 58.0064 8.05 57.9998H49.9999C52.1216 57.9998 54.1564 57.157 55.6567 55.6567C57.157 54.1564 57.9999 52.1216 57.9999 49.9999V26.0499C58.0026 24.8156 57.7197 23.5973 57.1732 22.4905C56.6267 21.3836 55.8315 20.4183 54.8499 19.6699Z" fill="#FFA24D"/>
<path d="M48.9999 57.9998V1.99999C48.9999 1.46956 48.7892 0.960857 48.4141 0.585785C48.039 0.210713 47.5303 0 46.9999 0H11C10.4695 0 9.96083 0.210713 9.58576 0.585785C9.21069 0.960857 8.99998 1.46956 8.99998 1.99999V57.9998H48.9999Z" fill="#E9E9E9"/>
<path d="M57.9999 26.0499V49.9999C57.9999 52.1216 57.1571 54.1564 55.6568 55.6567C54.1565 57.157 52.1217 57.9999 50 57.9999H8.05007C5.92834 57.9999 3.89352 57.157 2.39323 55.6567C0.892944 54.1564 0.0500911 52.1216 0.0500911 49.9999V26.0499C0.0459568 24.7878 0.344283 23.5431 0.920089 22.42L23.92 42.8599C25.3648 44.0834 27.1967 44.7549 29.09 44.7549C30.9833 44.7549 32.8152 44.0834 34.26 42.8599L57.2599 22.42C57.7908 23.5542 58.0445 24.7984 57.9999 26.0499Z" fill="#FFBE82"/>
<path d="M56 55.2798C55.2503 56.1332 54.3275 56.8171 53.2929 57.2861C52.2584 57.7551 51.1358 57.9984 50 57.9998H8.05008C6.98966 58.0007 5.93966 57.7907 4.96112 57.3822C3.98258 56.9736 3.09503 56.3745 2.35009 55.6198L23.88 36.6199C25.294 35.3727 27.1146 34.6845 29 34.6845C30.8854 34.6845 32.706 35.3727 34.12 36.6199L56 55.2798Z" fill="#FFA24D"/>
<path d="M27.8799 18.33L25.0499 15.5C24.4874 14.9382 23.7249 14.6226 22.9299 14.6226C22.1349 14.6226 21.3724 14.9382 20.8099 15.5C20.2481 16.0625 19.9326 16.825 19.9326 17.62C19.9326 18.415 20.2481 19.1774 20.8099 19.7399L25.0499 23.9999C25.4214 24.3718 25.8626 24.6669 26.3481 24.8682C26.8337 25.0695 27.3542 25.1731 27.8799 25.1731C28.4056 25.1731 28.9261 25.0695 29.4117 24.8682C29.8973 24.6669 30.3384 24.3718 30.7099 23.9999L39.1899 15.51C39.7517 14.9475 40.0672 14.185 40.0672 13.39C40.0672 12.595 39.7517 11.8325 39.1899 11.27C38.6274 10.7082 37.8649 10.3926 37.0699 10.3926C36.2749 10.3926 35.5124 10.7082 34.9499 11.27L27.8799 18.33Z" fill="#00CC83"/>
</svg>
